# File created by Blade
# Date/Time:  Tue Jan 27 19:32:46 2015
#---------------------------------------------------------
:version 1.10
:name HOM
:units
  mass 1.0
  length 1.000000
  angle deg
:documentation
     Acclaim Skeleton File
:root
   axis xyz
   order TX TY TZ RX RY RZ
   position 0.000000 0.000000 0.000000
   orientation 0 0 0
:bonedata
   begin
      id 1
      name Spine_dum
      direction 0.000000 1.000000 0.000000
      length 6.116652
      axis 0.0 0.0 0.0 xyz
   end
   begin
      id 2
      name LeftUpLeg_dum
      direction 1.000000 0.000000 0.000000
      length 4.711765
      axis 0.0 0.0 0.0 xyz
   end
   begin
      id 3
      name RightUpLeg_dum
      direction -1.000000 0.000000 0.000000
      length 4.711765
      axis 0.0 0.0 0.0 xyz
   end
   begin
      id 4
      name Spine
      direction 0.000000 1.000000 0.000000
      length 0.000000
      axis 0.0 0.0 0.0 xyz
      dof rx ry rz
   end
   begin
      id 5
      name Spine_dum1
      direction 0.000000 1.000000 0.000000
      length 15.225563
      axis 0.0 0.0 0.0 xyz
   end
   begin
      id 6
      name Spine_dum2
      direction 0.000000 1.000000 0.000000
      length 8.977654
      axis 0.0 0.0 0.0 xyz
   end
   begin
      id 7
      name Spine_dum3
      direction 0.000000 1.000000 0.000000
      length 8.977654
      axis 0.0 0.0 0.0 xyz
   end
   begin
      id 8
      name Head
      direction 0.000000 1.000000 0.000000
      length 4.527550
      axis 0.0 0.0 0.0 xyz
      dof rx ry rz
   end
   begin
      id 9
      name LeftShoulder
      direction 1.000000 0.000000 0.000000
      length 7.110130
      axis 0.0 0.0 -90.0 xyz
      dof rx ry rz
   end
   begin
      id 10
      name LeftArm
      direction 1.000000 0.000000 0.000000
      length 10.398341
      axis 0.0 0.0 -90.0 xyz
      dof rx ry rz
   end
   begin
      id 11
      name LeftForeArm
      direction 1.000000 0.000000 0.000000
      length 8.888997
      axis 0.0 0.0 -90.0 xyz
      dof ry rz rx
   end
   begin
      id 12
      name LeftHand
      direction 0.000000 0.000000 0.000000
      length 0.000000
      axis 0.0 0.0 -90.0 xyz
      dof rx ry rz
   end
   begin
      id 13
      name LeftHand_dum1
      direction 0.000000 0.000000 0.000000
      length 0.000000
      axis 0.0 0.0 -90.0 xyz
   end
   begin
      id 14
      name LeftHand_dum2
      direction 1.000000 0.000000 0.000000
      length 3.937000
      axis 0.0 0.0 -90.0 xyz
   end
   begin
      id 15
      name LeftHandThumb1
      direction 0.000000 0.000000 1.000000
      length 3.937000
      axis 0.0 0.0 -90.0 xyz
      dof rx rz ry
   end
   begin
      id 16
      name RightShoulder
      direction -1.000000 0.000000 0.000000
      length 7.110130
      axis 0.0 0.0 90.0 xyz
      dof rx ry rz
   end
   begin
      id 17
      name RightArm
      direction -1.000000 0.000000 0.000000
      length 10.398341
      axis 0.0 0.0 90.0 xyz
      dof rx ry rz
   end
   begin
      id 18
      name RightForeArm
      direction -1.000000 0.000000 0.000000
      length 8.888997
      axis 0.0 0.0 90.0 xyz
      dof ry rz rx
   end
   begin
      id 19
      name RightHand
      direction 0.000000 0.000000 0.000000
      length 0.000000
      axis 0.0 0.0 90.0 xyz
      dof rx ry rz
   end
   begin
      id 20
      name RightHand_dum1
      direction 0.000000 0.000000 0.000000
      length 0.000000
      axis 0.0 0.0 90.0 xyz
   end
   begin
      id 21
      name RightHand_dum2
      direction -1.000000 0.000000 0.000000
      length 3.937000
      axis 0.0 0.0 90.0 xyz
   end
   begin
      id 22
      name RightHandThumb1
      direction 0.000000 0.000000 1.000000
      length 3.937000
      axis 0.0 0.0 90.0 xyz
      dof rx rz ry
   end
   begin
      id 23
      name LeftUpLeg
      direction 0.000000 -1.000000 0.000000
      length 15.510451
      axis 0.0 0.0 0.0 xyz
      dof rx ry rz
   end
   begin
      id 24
      name LeftLeg
      direction 0.000000 -1.000000 0.000000
      length 14.858061
      axis 0.0 0.0 0.0 xyz
      dof rx ry rz
   end
   begin
      id 25
      name LeftFoot
      direction 0.000000 -0.258819 0.965926
      length 5.128852
      axis 15.0 0.0 0.0 xyz
      dof rx ry rz
   end
   begin
      id 26
      name LeftToeBase
      direction 0.000000 0.000000 1.000000
      length 2.952750
      axis 0.0 0.0 0.0 xyz
      dof rx ry rz
   end
   begin
      id 27
      name RightUpLeg
      direction 0.000000 -1.000000 0.000000
      length 15.510451
      axis 0.0 0.0 0.0 xyz
      dof rx ry rz
   end
   begin
      id 28
      name RightLeg
      direction 0.000000 -1.000000 0.000000
      length 14.858061
      axis 0.0 0.0 0.0 xyz
      dof rx ry rz
   end
   begin
      id 29
      name RightFoot
      direction 0.000000 -0.258819 0.965926
      length 5.128852
      axis 15.0 0.0 0.0 xyz
      dof rx ry rz
   end
   begin
      id 30
      name RightToeBase
      direction 0.000000 0.000000 1.000000
      length 2.952750
      axis 0.0 0.0 0.0 xyz
      dof rx ry rz
   end
:hierarchy
   begin
      root Spine_dum LeftUpLeg_dum RightUpLeg_dum
      Spine_dum Spine
      LeftUpLeg_dum LeftUpLeg
      RightUpLeg_dum RightUpLeg
      Spine Spine_dum1 Spine_dum2 Spine_dum3
      Spine_dum1 Head
      Spine_dum2 LeftShoulder
      Spine_dum3 RightShoulder
      LeftShoulder LeftArm
      LeftArm LeftForeArm
      LeftForeArm LeftHand
      LeftHand LeftHand_dum1 LeftHand_dum2
      LeftHand_dum1 LeftHandThumb1
      RightShoulder RightArm
      RightArm RightForeArm
      RightForeArm RightHand
      RightHand RightHand_dum1 RightHand_dum2
      RightHand_dum1 RightHandThumb1
      LeftUpLeg LeftLeg
      LeftLeg LeftFoot
      LeftFoot LeftToeBase
      RightUpLeg RightLeg
      RightLeg RightFoot
      RightFoot RightToeBase
   end

# File created by Blade
# Date/Time:  Tue Jan 27 19:32:37 2015
# Frame Rate: 120.000 fps
#------------------------------------------------------
:FULLY-SPECIFIED
:DEGREES
913
root 4.071919 32.249349 -0.539628 -5.165539 0.106647 -0.131004
Spine 2.086703 16.000668 0.219338
Head 3.681657 -19.044936 3.120258
LeftShoulder -1.553012 -9.758452 25.130603
LeftArm 0.509379 47.718956 -101.517327
LeftForeArm 2.530713 0.000000 12.508354
LeftHand 10.038279 -0.000000 -5.460175
LeftHandThumb1 -26.253704 0.000000 33.147579
RightShoulder -2.057855 9.301717 -30.067834
RightArm 39.762197 3.941453 111.717091
RightForeArm -0.634847 -0.000000 121.176592
RightHand 25.116809 -0.000000 -8.705970
RightHandThumb1 -24.326973 -0.000000 -32.862282
LeftUpLeg 11.057873 1.351268 -2.018715
LeftLeg 2.502743 -0.000000 -0.000000
LeftFoot -21.210168 18.684383 -22.812258
LeftToeBase 16.028871 -0.000000 -0.000000
RightUpLeg 9.680559 -9.828876 0.463984
RightLeg 1.098871 -0.000000 -0.000000
RightFoot -12.466642 -12.238350 14.207219
RightToeBase 10.729986 -0.000000 -0.000000
914
root 4.069539 32.249422 -0.539714 -5.138426 0.151455 -0.122263
Spine 2.088206 16.030009 0.232846
Head 3.561025 -18.979375 2.954652
LeftShoulder -1.551997 -9.843387 25.092596
LeftArm 0.318181 47.696405 -101.650724
LeftForeArm 2.412220 0.000000 12.438571
LeftHand 10.102724 0.000000 -5.961276
LeftHandThumb1 -26.253704 0.000000 33.147579
RightShoulder -2.007621 9.186788 -29.983467
RightArm 39.781169 3.902538 111.649759
RightForeArm -1.047366 -0.000000 122.001161
RightHand 25.027265 -0.000000 -8.995793
RightHandThumb1 -24.326973 -0.000000 -32.862282
LeftUpLeg 11.024085 1.318633 -2.025813
LeftLeg 2.502528 -0.000000 -0.000000
LeftFoot -21.187367 18.679548 -22.801305
LeftToeBase 16.000575 -0.000000 -0.000000
RightUpLeg 9.665454 -9.858476 0.460992
RightLeg 1.088225 -0.000000 -0.000000
RightFoot -12.480306 -12.255394 14.196404
RightToeBase 10.757774 -0.000000 -0.000000
915
root 4.066365 32.249387 -0.538582 -5.115576 0.200075 -0.109576
Spine 2.091175 16.135828 0.203228
Head 3.400818 -18.958617 2.888582
LeftShoulder -1.505453 -9.853270 25.088036
LeftArm 0.321015 47.696852 -101.670680
LeftForeArm 2.506353 -0.000000 12.318674
LeftHand 10.049506 -0.000000 -5.574543
LeftHandThumb1 -26.253704 0.000000 33.147579
RightShoulder -2.056239 9.129344 -29.894983
RightArm 39.700319 3.899802 111.592448
RightForeArm -1.303331 -0.000000 122.816978
RightHand 24.990092 -0.000000 -9.221136
RightHandThumb1 -24.326973 -0.000000 -32.862282
LeftUpLeg 10.998433 1.296975 -2.030815
LeftLeg 2.500059 -0.000000 -0.000000
LeftFoot -21.172484 18.660202 -22.797039
LeftToeBase 16.087859 -0.000000 -0.000000
RightUpLeg 9.662543 -9.863480 0.461140
RightLeg 1.064963 -0.000000 -0.000000
RightFoot -12.488202 -12.294653 14.187655
RightToeBase 10.756992 -0.000000 -0.000000
916
root 4.064383 32.249316 -0.538190 -5.091087 0.238549 -0.096823
Spine 2.096091 16.234926 0.188811
Head 3.252859 -18.935002 2.774933
LeftShoulder -1.485964 -9.872614 25.079467
LeftArm 0.301180 47.696001 -101.708758
LeftForeArm 2.561034 -0.000000 12.203016
LeftHand 9.993275 -0.000000 -5.375679
LeftHandThumb1 -26.253704 0.000000 33.147579
RightShoulder -2.086280 9.154415 -29.826933
RightArm 39.558341 3.925507 111.536100
RightForeArm -1.383837 -0.000000 123.624741
RightHand 25.004439 -0.000000 -9.356480
RightHandThumb1 -24.326973 -0.000000 -32.862282
LeftUpLeg 10.969746 1.262403 -2.041270
LeftLeg 2.500786 -0.000000 -0.000000
LeftFoot -21.158532 18.641802 -22.808152
LeftToeBase 16.080552 -0.000000 -0.000000
RightUpLeg 9.654870 -9.897088 0.452329
RightLeg 1.044992 -0.000000 -0.000000
RightFoot -12.498180 -12.298485 14.181516
RightToeBase 10.787735 -0.000000 -0.000000
917
root 4.062161 32.249087 -0.538395 -5.065934 0.265824 -0.088513
Spine 2.104135 16.277895 0.200781
Head 3.104185 -18.908386 2.613955
LeftShoulder -1.525529 -9.781844 25.049137
LeftArm 0.393752 47.649161 -101.636321
LeftForeArm 2.606129 0.000000 12.089680
LeftHand 10.157312 -0.000000 -5.712419
LeftHandThumb1 -26.253704 0.000000 33.147579
RightShoulder -2.039599 9.239276 -29.800541
RightArm 39.376438 3.962687 111.539679
RightForeArm -1.402517 0.000000 124.455375
RightHand 25.131775 -0.000000 -9.625703
RightHandThumb1 -24.326973 -0.000000 -32.862282
LeftUpLeg 10.949942 1.249513 -2.045063
LeftLeg 2.481700 -0.000000 -0.000000
LeftFoot -21.144105 18.642904 -22.806656
LeftToeBase 16.038689 -0.000000 -0.000000
RightUpLeg 9.636173 -9.881238 0.456976
RightLeg 1.036866 -0.000000 -0.000000
RightFoot -12.509751 -12.333285 14.197054
RightToeBase 10.753568 -0.000000 -0.000000
918
root 4.061107 32.249191 -0.538672 -5.043587 0.319896 -0.079519
Spine 2.117036 16.290553 0.216194
Head 2.978726 -18.831352 2.424926
LeftShoulder -1.566305 -9.739976 25.015174
LeftArm 0.412835 47.613144 -101.613869
LeftForeArm 2.500292 -0.000000 11.983915
LeftHand 10.278802 -0.000000 -6.569626
LeftHandThumb1 -26.253704 0.000000 33.147579
RightShoulder -2.005092 9.144037 -29.751002
RightArm 39.362080 3.907149 111.513783
RightForeArm -1.431691 -0.000000 125.309427
RightHand 25.296263 -0.000000 -9.848855
RightHandThumb1 -24.326973 -0.000000 -32.862282
LeftUpLeg 10.915912 1.188483 -2.057603
LeftLeg 2.492484 -0.000000 -0.000000
LeftFoot -21.135287 18.643233 -22.797584
LeftToeBase 16.059735 -0.000000 -0.000000
RightUpLeg 9.632623 -9.919987 0.451494
RightLeg 1.013666 -0.000000 -0.000000
RightFoot -12.519599 -12.350974 14.207792
RightToeBase 10.777969 -0.000000 -0.000000
919
root 4.059224 32.248772 -0.537107 -5.019799 0.359033 -0.065153
Spine 2.115606 16.346604 0.214656
Head 2.837695 -18.807260 2.280937
LeftShoulder -1.582427 -9.732856 24.996544
LeftArm 0.390373 47.562484 -101.632375
LeftForeArm 2.575889 0.000000 11.873315
LeftHand 10.141373 -0.000000 -6.216107
LeftHandThumb1 -26.253704 0.000000 33.147579
RightShoulder -1.977189 9.105643 -29.691574
RightArm 39.260755 3.880941 111.468018
RightForeArm -1.496268 0.000000 126.235711
RightHand 25.343381 -0.000000 -10.136686
RightHandThumb1 -24.326973 -0.000000 -32.862282
LeftUpLeg 10.898490 1.172422 -2.066308
LeftLeg 2.476170 -0.000000 -0.000000
LeftFoot -21.107821 18.623306 -22.785775
LeftToeBase 16.058843 -0.000000 -0.000000
RightUpLeg 9.633645 -9.936255 0.442983
RightLeg 0.980721 -0.000000 -0.000000
RightFoot -12.520381 -12.366188 14.187092
RightToeBase 10.759519 -0.000000 -0.000000
